<?xml version="1.0" encoding="UTF-8" standalone="no"?><!DOCTYPE svg PUBLIC "-//W3C//DTD SVG 1.1//EN" "http://www.w3.org/Graphics/SVG/1.1/DTD/svg11.dtd"><svg width="100%" height="100%" viewBox="0 0 900 250" version="1.1" xmlns="http://www.w3.org/2000/svg" xmlns:xlink="http://www.w3.org/1999/xlink" xml:space="preserve" xmlns:serif="http://www.serif.com/" style="fill-rule:evenodd;clip-rule:evenodd;stroke-linejoin:round;stroke-miterlimit:1.41421;"><rect id="Logo" x="0" y="0" width="900" height="250" style="fill:none;"/><g><g><path d="M63.455,170.775c12.433,0 23.09,-3.068 31.809,-9.203c8.719,-5.975 13.24,-14.371 13.24,-25.189c0,-18.407 -12.11,-28.256 -36.814,-33.261c-16.954,-3.391 -27.287,-6.459 -31.163,-9.365c-3.713,-3.068 -5.812,-6.62 -5.812,-11.141c0,-12.594 9.365,-19.699 25.834,-19.699c17.277,0 26.803,7.75 28.579,23.574l14.532,0c-0.162,-23.412 -16.954,-36.491 -42.465,-36.491c-23.897,0 -41.819,12.433 -41.819,33.746c0,8.073 2.745,14.532 8.396,19.537c5.651,4.844 16.469,8.719 32.938,11.948c24.866,4.683 32.455,10.819 32.455,21.637c0,13.563 -10.657,20.99 -29.225,20.99c-19.699,0 -33.423,-10.011 -33.585,-27.772l-14.532,0c0.162,26.48 20.022,40.689 47.632,40.689Z" style="fill:#15aabf;fill-rule:nonzero;"/><path d="M153.552,169.968c11.626,0 21.152,-4.521 27.126,-15.178l0.323,0l0,13.24l12.917,0l0,-83.477l-13.724,0l0,47.632c0,15.178 -8.719,25.673 -24.704,25.673c-10.495,0 -16.954,-6.782 -16.954,-16.469l0,-56.836l-13.724,0l0,55.705c0,19.537 9.203,29.71 28.74,29.71Z" style="fill:#15aabf;fill-rule:nonzero;"/><path d="M215.07,200l13.724,0l0,-43.111l0.323,0c5.813,8.881 16.631,13.079 26.965,13.079c23.574,0 38.105,-17.923 38.105,-43.434c0,-25.673 -14.209,-43.918 -38.428,-43.918c-12.756,0 -22.282,4.682 -26.642,13.24l-0.323,0l0,-11.303l-13.724,0l0,115.447Zm39.559,-42.142c-16.631,0 -26.319,-12.433 -26.319,-31.647c0,-18.245 8.881,-31.485 25.35,-31.485c16.308,0 25.996,13.24 25.996,30.839c0,20.345 -9.204,32.293 -25.027,32.293Z" style="fill:#15aabf;fill-rule:nonzero;"/><path d="M347.47,169.968c18.892,0 31.97,-9.85 35.684,-28.418l-13.563,0c-2.261,10.334 -9.365,16.308 -21.636,16.308c-16.147,0 -25.996,-10.495 -25.996,-26.48l0,-0.969l62.487,0l0,-1.615c0,-13.563 -3.23,-24.704 -9.85,-33.261c-6.62,-8.558 -15.985,-12.917 -27.933,-12.917c-11.302,0 -20.829,4.198 -28.256,12.432c-7.427,8.235 -10.98,18.407 -10.98,30.679c0,14.531 5.652,30.355 17.923,38.428c5.974,3.875 13.401,5.813 22.12,5.813Zm-25.511,-51.669c1.13,-14.209 10.818,-23.573 23.735,-23.573c13.563,0 23.413,10.172 24.22,23.573l-47.955,0Z" style="fill:#15aabf;fill-rule:nonzero;"/><path d="M401.722,168.03l13.725,0l0,-37.298c0,-22.928 9.688,-33.585 30.193,-33.585l0,-14.531l-1.937,0c-13.079,0 -22.282,6.297 -28.741,19.537l-0.323,0l0,-17.6l-12.917,0l0,83.477Z" style="fill:#15aabf;fill-rule:nonzero;"/><path d="M490.527,170.452c27.449,0 40.366,-13.886 40.366,-38.105l0,-79.602l-30.032,0l0,77.503c0,9.526 -3.229,14.37 -10.818,14.37c-7.589,0 -11.625,-4.683 -11.625,-11.303l0,-11.141l-28.257,0l0,4.36c0,30.84 13.725,43.918 40.366,43.918Z" style="fill:#15aabf;fill-rule:nonzero;"/><path d="M595.156,170.452c30.678,0 50.215,-13.078 50.215,-38.59c0,-8.88 -3.067,-16.146 -9.365,-21.797c-6.458,-5.652 -18.406,-10.657 -36.975,-14.694c-14.854,-3.229 -20.506,-6.62 -20.506,-11.948c0,-6.297 5.813,-9.849 14.532,-9.849c10.818,0 18.568,4.359 18.568,12.917l0,0.969l29.871,0l0,-1.454c0,-20.99 -19.214,-35.683 -46.178,-35.683c-23.09,0 -46.825,10.979 -46.825,35.038c0,8.719 2.906,15.5 8.719,21.151c5.974,5.813 16.954,10.657 32.777,14.209c13.563,3.068 25.35,6.297 25.35,14.693c0,7.428 -7.427,11.787 -18.568,11.787c-14.209,0 -20.991,-5.651 -21.636,-17.922l-30.033,0c0,26.641 20.022,41.173 50.054,41.173Z" style="fill:#15aabf;fill-rule:nonzero;"/><path d="M711.895,170.452c35.522,0 56.835,-25.834 56.835,-60.064c0,-34.554 -21.798,-60.065 -56.835,-60.065c-36.007,0 -56.836,26.319 -56.836,60.065c0,35.845 22.928,60.064 56.836,60.064Zm0,-25.834c-17.277,0 -26.804,-14.047 -26.804,-34.23c0,-20.345 9.688,-34.231 26.642,-34.231c17.761,0 26.965,14.209 26.965,34.231c0,20.183 -9.688,34.23 -26.803,34.23Z" style="fill:#15aabf;fill-rule:nonzero;"/><path d="M784.715,168.03l28.256,0l0,-71.851l0.323,0l40.043,71.851l30.84,0l0,-115.285l-28.257,0l0,71.044l-0.323,0l-40.043,-71.044l-30.839,0l0,115.285Z" style="fill:#15aabf;fill-rule:nonzero;"/></g></g></svg>
